<svg width="75" height="75" viewBox="0 0 75 75" fill="none" xmlns="http://www.w3.org/2000/svg">
<path d="M69.312 0.00292969H29.4296C26.1403 0.170787 23.6029 2.96196 23.7484 6.25245V57.4982C23.7484 57.5169 23.7582 57.5325 23.7591 57.5509C23.7632 57.6921 23.7913 57.8317 23.8424 57.9634L23.8502 57.9898L23.8522 57.9968L26.8104 64.7943C27.1722 65.6626 28.0145 66.2334 28.955 66.2474H29.9981V71.2469C30.0023 71.6738 30.0802 72.0966 30.2285 72.4968H14.999V49.9987C14.9968 47.9287 13.3193 46.2512 11.2493 46.249V24.914C16.4872 24.2542 20.3095 19.636 19.9789 14.3672C19.6483 9.09826 15.2786 4.99411 9.99935 4.99411C4.72006 4.99411 0.3505 9.09826 0.019913 14.3672C-0.310674 19.636 3.51166 24.2542 8.7495 24.914V46.249C6.67956 46.2512 5.00201 47.9287 4.99982 49.9987V72.4968H1.25013C0.559809 72.4968 0.000285787 73.0563 0.000285787 73.7466C0.000285787 74.437 0.559809 74.9965 1.25013 74.9965H73.744C74.4343 74.9965 74.9938 74.4368 74.9938 73.7466C74.9938 73.0565 74.4343 72.4968 73.744 72.4968H68.5141C68.6623 72.0965 68.7402 71.6736 68.7443 71.2469V66.2474H69.7867C70.7268 66.2331 71.5689 65.663 71.9314 64.7956L74.8901 57.9968L74.8922 57.9902C74.896 57.9813 74.8967 57.9714 74.9004 57.9624C74.9516 57.8302 74.9799 57.6904 74.9837 57.5487C74.9845 57.531 74.994 57.5161 74.994 57.4982V6.25245C75.1393 2.96181 72.6016 0.17064 69.312 0.00292969ZM2.50012 15.0017C2.50012 10.8599 5.8577 7.5023 9.99949 7.5023C14.1413 7.5023 17.4989 10.8599 17.4989 15.0017C17.4989 19.1435 14.1413 22.501 9.99949 22.501C5.85946 22.4965 2.50466 19.1416 2.50012 15.0017ZM12.4992 72.4969H7.49965V49.9988C7.50053 49.3089 8.05962 48.7499 8.7495 48.749H11.2493C11.9392 48.7499 12.4983 49.3089 12.4992 49.9988V72.4969ZM37.4971 71.2469C37.4963 71.9368 36.9372 72.4959 36.2473 72.4968H33.7474C33.0576 72.4959 32.4985 71.9368 32.4976 71.2469V66.2474H37.4971V71.2469ZM39.7666 72.4969C39.9148 72.0966 39.9927 71.6738 39.9968 71.2471V66.2476H58.7452V71.2471C58.7495 71.6739 58.8274 72.0968 58.9756 72.4969H39.7666ZM66.2448 71.2469C66.244 71.937 65.6849 72.4962 64.9949 72.4968H62.4951C61.805 72.4961 61.2458 71.937 61.2452 71.2469V66.2474H66.2448V71.2469ZM69.6612 63.7476H29.0811L26.9054 58.748H71.8376L69.6612 63.7476ZM43.7467 56.2482V53.7484C43.7475 53.0585 44.3066 52.4994 44.9965 52.4985H53.7457C54.4356 52.4994 54.9947 53.0585 54.9956 53.7484V56.2482H43.7467ZM72.4941 6.25245V56.2482H57.4954V53.7484C57.4932 51.6784 55.8157 50.0009 53.7457 49.9987H44.9965C42.9266 50.0009 41.249 51.6784 41.2468 53.7484V56.2482H26.2481V6.25245C26.1067 4.34348 27.5231 2.67414 29.4296 2.50277H69.312C71.2187 2.67414 72.6353 4.34334 72.4941 6.25245Z" fill="#1A6C77"/>
<path d="M66.2448 5.00244H32.4976C30.4277 5.00464 28.7501 6.68218 28.7479 8.75213V10.002C28.7501 12.0719 30.4277 13.7495 32.4976 13.7517H66.2448C68.3147 13.7495 69.9922 12.0719 69.9944 10.002V8.75213C69.9921 6.68218 68.3147 5.00464 66.2448 5.00244ZM67.4946 10.002C67.4939 10.692 66.9347 11.2512 66.2448 11.2518H32.4976C31.8077 11.2509 31.2486 10.6919 31.2478 10.002V8.75213C31.2486 8.06224 31.8077 7.50316 32.4976 7.50228H66.2448C66.9348 7.50301 67.494 8.0621 67.4946 8.75213V10.002Z" fill="#1A6C77"/>
<path d="M33.7475 43.7495C30.9863 43.7495 28.7479 45.9879 28.7479 48.749C28.7511 51.5089 30.9876 53.7455 33.7475 53.7486C36.5086 53.7486 38.747 51.5102 38.747 48.749C38.747 45.9879 36.5086 43.7495 33.7475 43.7495ZM33.7475 51.2489C32.3668 51.2489 31.2476 50.1297 31.2476 48.749C31.2489 47.369 32.3674 46.2507 33.7475 46.2492C35.1281 46.2492 36.2473 47.3684 36.2473 48.749C36.2473 50.1297 35.1281 51.2489 33.7475 51.2489Z" fill="#1A6C77"/>
<path d="M64.9948 43.7495C62.2336 43.7495 59.9952 45.9879 59.9952 48.749C59.9952 51.5102 62.2336 53.7486 64.9948 53.7486C67.7559 53.7486 69.9943 51.5102 69.9943 48.749C69.9915 45.9891 67.7547 43.7524 64.9948 43.7495ZM64.9948 51.2489C63.6141 51.2489 62.4949 50.1297 62.4949 48.749C62.4949 47.3684 63.6141 46.2492 64.9948 46.2492C66.3754 46.2492 67.4946 47.3684 67.4946 48.749C67.493 50.129 66.3748 51.2473 64.9948 51.2489Z" fill="#1A6C77"/>
<path d="M66.2448 16.2515H32.4976C30.4277 16.2537 28.7501 17.9312 28.7479 20.0012V37.4997C28.7501 39.5697 30.4277 41.2472 32.4976 41.2494H66.2448C68.3147 41.2472 69.9922 39.5697 69.9944 37.4997V20.0012C69.9921 17.9312 68.3147 16.2537 66.2448 16.2515ZM67.4946 37.4996C67.4939 38.1896 66.9347 38.7489 66.2448 38.7494H32.4976C31.8077 38.7486 31.2486 38.1895 31.2478 37.4996V20.0012C31.2486 19.3113 31.8077 18.7522 32.4976 18.7513H66.2448C66.9348 18.752 67.494 19.3111 67.4946 20.0012V37.4996Z" fill="#1A6C77"/>
</svg>
