<svg width="75" height="75" viewBox="0 0 75 75" fill="none" xmlns="http://www.w3.org/2000/svg">
<path d="M29.4886 13.4389C29.6338 14.671 30.8826 15.5358 32.0953 15.2413C33.854 14.814 35.6725 14.5972 37.5 14.5972C48.186 14.5972 57.4796 22.0538 59.8343 32.4155H57.3652C56.6815 32.4155 56.0706 32.8236 55.8089 33.4553C55.5472 34.0869 55.6904 34.8076 56.174 35.2915L62.7309 41.8484C63.0491 42.1666 63.4721 42.3418 63.9221 42.3418C64.3721 42.3418 64.795 42.1666 65.1133 41.8484L71.6704 35.2913C72.1538 34.8076 72.2971 34.0869 72.0353 33.4554C71.7735 32.8238 71.1627 32.4155 70.479 32.4155H68.0426C66.5647 23.4604 61.2576 15.6536 53.4297 10.9478C52.9097 10.6349 52.2347 10.8034 51.9221 11.3232C51.6095 11.8433 51.7777 12.5183 52.2976 12.8309C59.6877 17.2736 64.6594 24.6885 65.9379 33.1746C66.0634 34.0078 66.7642 34.6126 67.604 34.6126H69.2414L63.9221 39.9318L58.6028 34.6126H60.4664C61.5054 34.6189 62.3225 33.6198 62.1199 32.5994C59.7948 20.8951 49.4407 12.3999 37.5 12.3999C35.5264 12.3999 33.5616 12.6308 31.6589 13.0862L31.2059 9.42832C33.2587 8.97012 35.376 8.73779 37.5 8.73779C41.0684 8.73779 44.5503 9.38291 47.8488 10.6553C48.4147 10.8737 49.0509 10.5917 49.2693 10.0257C49.4877 9.45967 49.2057 8.82363 48.6397 8.60537C45.0877 7.2353 41.3399 6.54053 37.5 6.54053C35.1896 6.54053 32.8857 6.79614 30.6526 7.30049C29.5853 7.54146 28.8823 8.54429 29.0171 9.63325L29.4886 13.4389ZM49.9293 47.9647V40.9645C50.9706 40.5932 51.7192 39.6001 51.7192 38.4331V32.0669C51.7192 30.5839 50.5128 29.3774 49.0298 29.3774H44.5503V27.0352C44.5503 25.5523 43.3438 24.3458 41.8608 24.3458H33.1392C31.6562 24.3458 30.4497 25.5523 30.4497 27.0352V29.3774H25.9702C24.4872 29.3774 23.2808 30.5839 23.2808 32.0669V38.4331C23.2808 39.6003 24.0294 40.5933 25.0707 40.9645V47.9647C25.0707 49.448 26.2774 50.6547 27.7607 50.6547H32.5116C33.1184 50.6547 33.6103 50.163 33.6103 49.5561C33.6103 48.9492 33.1184 48.4575 32.5116 48.4575H27.7607C27.489 48.4575 27.2679 48.2364 27.2679 47.9647V41.1226H32.302V41.5504C32.302 42.5364 33.1041 43.3386 34.0901 43.3386H40.9102C41.8961 43.3386 42.6983 42.5364 42.6983 41.5504V41.1226H47.7324V47.9647C47.7324 48.2364 47.5113 48.4575 47.2396 48.4575H37.6387C37.032 48.4575 36.5401 48.9492 36.5401 49.5561C36.5401 50.163 37.032 50.6547 37.6387 50.6547H47.2396C48.7226 50.6549 49.9293 49.448 49.9293 47.9647ZM32.647 27.0352C32.647 26.7637 32.8677 26.5431 33.1392 26.5431H41.8608C42.1323 26.5431 42.353 26.7639 42.353 27.0352V29.3774H32.647V27.0352ZM40.5007 41.1413H34.4991V38.9064H40.5007V41.1413ZM48.8335 38.9253C48.8326 38.9253 48.8316 38.9251 48.8307 38.9251C48.8298 38.9251 48.8288 38.9253 48.8279 38.9253H42.6981V38.4973C42.6981 37.5113 41.896 36.7091 40.91 36.7091H34.09C33.104 36.7091 32.3019 37.5113 32.3019 38.4973V38.9253H26.1721C26.1712 38.9253 26.1702 38.9251 26.1693 38.9251C26.1684 38.9251 26.1674 38.9253 26.1665 38.9253H25.9702C25.6988 38.9253 25.478 38.7044 25.478 38.4331V32.0669C25.478 31.7955 25.6988 31.5747 25.9702 31.5747H49.0298C49.3012 31.5747 49.522 31.7956 49.522 32.0669V38.4331C49.522 38.7045 49.3012 38.9253 49.0298 38.9253H48.8335ZM62.0115 49.023C54.8496 49.023 49.0232 54.8496 49.0232 62.0115C49.0232 69.1567 54.9245 75 62.0115 75C69.0992 75 75 69.1664 75 62.0115C75 54.8496 69.1734 49.023 62.0115 49.023ZM62.0115 72.8027C59.3931 72.8027 56.9902 71.8646 55.1194 70.308C55.3859 68.7927 56.1434 67.406 57.2908 66.3576C57.7605 65.9273 58.2814 65.5667 58.8448 65.2809C59.7398 65.9168 60.8323 66.2924 62.0114 66.2924C63.1903 66.2924 64.2826 65.9171 65.1776 65.2813C67.1487 66.2782 68.5248 68.1311 68.9052 70.3065C67.0343 71.8641 64.6307 72.8027 62.0115 72.8027ZM58.7272 60.8108V59.3319C58.7272 57.5209 60.2005 56.0474 62.0115 56.0474C63.8225 56.0474 65.2958 57.5209 65.2958 59.3319V60.8108C65.2958 62.6218 63.8225 64.0951 62.0115 64.0951C60.2005 64.0951 58.7272 62.6218 58.7272 60.8108ZM70.678 68.4333C69.9649 66.4219 68.5702 64.7197 66.716 63.6204C67.2089 62.7981 67.4931 61.8372 67.4931 60.8108V59.3319C67.4931 56.3092 65.0341 53.8501 62.0115 53.8501C58.989 53.8501 56.5299 56.3092 56.5299 59.3319V60.8108C56.5299 61.8381 56.8146 62.7999 57.3083 63.6226C56.7737 63.9412 56.2709 64.3121 55.8078 64.7363C54.6861 65.7611 53.849 67.0336 53.3489 68.4385C52.0125 66.6419 51.2205 64.4177 51.2205 62.0115C51.2205 56.0612 56.0613 51.2203 62.0115 51.2203C67.9617 51.2203 72.8027 56.0612 72.8027 62.0115C72.8027 64.4153 72.012 66.6376 70.678 68.4333ZM46.1055 65.3848L45.7143 61.5576C45.5919 60.29 44.3168 59.4048 43.0862 59.7144C41.2699 60.1711 39.3905 60.4027 37.5001 60.4027C26.8141 60.4027 17.5206 52.9462 15.166 42.5843H17.8248C18.5086 42.5843 19.1194 42.1761 19.3812 41.5443C19.643 40.9125 19.4996 40.1921 19.016 39.7085L12.4588 33.1513C11.8021 32.4948 10.7335 32.4948 10.0767 33.1513L3.51958 39.7085C3.03604 40.1921 2.89263 40.9126 3.15425 41.5443C3.41587 42.1759 4.02686 42.5843 4.71064 42.5843H6.95772C8.12856 49.6676 11.7604 56.1546 17.2169 60.8903C22.8406 65.7713 30.0439 68.4595 37.5 68.4595C39.8536 68.4595 42.1994 68.1942 44.4725 67.671C45.5123 67.4316 46.2144 66.4487 46.1055 65.3848ZM37.5 66.2622C30.573 66.2622 23.8812 63.7652 18.657 59.2311C13.4843 54.7417 10.0767 48.5602 9.06211 41.8257C8.93672 40.9923 8.23594 40.3874 7.396 40.3874H5.94829L11.2676 35.0681L16.5869 40.3874H14.5337C14.0272 40.3874 13.5523 40.6119 13.2308 41.0038C12.9094 41.3952 12.7818 41.9043 12.8802 42.4006C15.2052 54.1049 25.5593 62.6001 37.5 62.6001C39.5416 62.6001 41.5721 62.3533 43.5371 61.8665L43.9131 65.5449C41.8222 66.0208 39.6649 66.2622 37.5 66.2622ZM12.9885 25.977C20.0764 25.977 25.9768 20.1447 25.9768 12.9885C25.9768 5.82656 20.1504 0 12.9885 0C5.82656 0 0 5.82656 0 12.9885C0 20.1174 5.88501 25.977 12.9885 25.977ZM12.9885 23.7797C10.3696 23.7797 7.96626 22.8413 6.09521 21.2839C6.36064 19.7717 7.11826 18.3855 8.26597 17.3358C8.73794 16.9046 9.25957 16.5437 9.82236 16.2583C10.7172 16.8939 11.8094 17.2692 12.9883 17.2692C14.1672 17.2692 15.2596 16.8937 16.1546 16.258C18.1258 17.2541 19.5018 19.1071 19.8816 21.2839C18.0108 22.8412 15.6075 23.7797 12.9885 23.7797ZM9.70415 11.7876V10.3087C9.70415 8.49771 11.1775 7.02436 12.9885 7.02436C14.7995 7.02436 16.2728 8.49771 16.2728 10.3087V11.7876C16.2727 13.6006 14.7946 15.0719 12.9885 15.0719C11.1775 15.0719 9.70415 13.5986 9.70415 11.7876ZM12.9885 2.19727C18.9388 2.19727 23.7795 7.03814 23.7795 12.9885C23.7795 15.3924 22.9888 17.6147 21.6546 19.4105C20.9418 17.3982 19.5473 15.6959 17.693 14.597C18.1857 13.7748 18.4699 12.814 18.4699 11.7876V10.3087C18.4699 7.28613 16.0109 4.8271 12.9883 4.8271C9.96577 4.8271 7.50674 7.28613 7.50674 10.3087V11.7876C7.50674 12.8152 7.7915 13.7773 8.28545 14.6001C7.75137 14.9183 7.24834 15.2893 6.7834 15.7143C5.66162 16.7401 4.82461 18.0119 4.3248 19.4143C2.98901 17.6178 2.19727 15.394 2.19727 12.9885C2.19727 7.03814 7.03814 2.19727 12.9885 2.19727Z" fill="#1A6C77"/>
</svg>
