<svg width="180" height="60" viewBox="0 0 180 60" fill="none" xmlns="http://www.w3.org/2000/svg">
<path d="M173.256 49.7433C173.256 49.87 173.284 49.9952 173.336 50.1103C173.389 50.2253 173.465 50.3274 173.562 50.4096C173.658 50.4916 173.77 50.5518 173.891 50.5859C174.012 50.62 174.14 50.6271 174.264 50.6068C174.948 50.6068 175.26 50.28 175.307 49.7433H174.774C174.774 50.0117 174.658 50.245 174.287 50.245C173.916 50.245 173.835 50 173.8 49.7433H173.256ZM172.259 50.9102V56.3244H173.001L174.681 53.6289C175.051 53.0439 175.383 52.4359 175.678 51.8086C175.678 52.4971 175.608 53.1389 175.608 54.014V56.3477H176.257V50.8751H175.562L173.87 53.6756C173.476 54.3174 173.14 54.9008 172.873 55.4726C172.873 54.7491 172.943 54.0373 172.943 53.1389V50.8051L172.259 50.9102ZM164.31 50.9102V56.3244H165.051L166.732 53.6289C167.101 53.0439 167.434 52.4359 167.728 51.8086C167.728 52.4971 167.659 53.1389 167.659 54.014V56.3477H168.308V50.8751H167.612L165.921 53.6756C165.527 54.3174 165.19 54.9008 164.924 55.4726C164.924 54.7491 164.982 54.0373 164.982 53.1389V50.8051L164.31 50.9102ZM156.407 50.9102V56.3244H157.102V53.7456H159.698V56.2894H160.405V50.8751H159.698V53.1389H157.102V50.8751L156.407 50.9102ZM149.836 54.0723L150.358 52.5088C150.462 52.182 150.555 51.8553 150.624 51.5286C150.705 51.8436 150.787 52.1587 150.902 52.5204L151.424 54.084L149.836 54.0723ZM151.598 54.6208L152.177 56.3244H152.919L151.088 50.9102H150.23L148.399 56.3244H149.118L149.674 54.6208H151.598ZM141.029 50.9102V56.3244H141.725V51.4586H144.228V56.2894H144.923V50.8751L141.029 50.9102ZM136.58 56.3244H137.263L136.927 50.9102H136.047L135.085 53.5239C134.841 54.2124 134.656 54.8075 134.517 55.3442C134.378 54.7841 134.193 54.1774 133.972 53.5239L133.057 50.9102H132.176L131.805 56.3244H132.466L132.605 53.9907C132.605 53.1739 132.698 52.2754 132.709 51.5986C132.86 52.2404 133.08 52.9405 133.335 53.699L134.204 56.2777H134.726L135.676 53.6523C135.942 52.9055 136.174 52.2287 136.36 51.5986C136.36 52.2754 136.36 53.1855 136.441 53.9323L136.58 56.3244ZM125.896 51.3419C127.054 51.3419 127.611 52.5088 127.611 53.5473C127.611 54.5858 126.985 55.7993 125.884 55.7993C124.783 55.7993 124.169 54.7608 124.169 53.6056C124.169 52.4504 124.737 51.3419 125.896 51.3419ZM125.896 50.7701C125.539 50.78 125.188 50.8655 124.865 51.0209C124.542 51.1762 124.256 51.3981 124.025 51.6721C123.793 51.9461 123.621 52.2659 123.52 52.6111C123.419 52.9562 123.391 53.319 123.439 53.6756C123.41 54.0182 123.452 54.3631 123.563 54.6886C123.673 55.014 123.849 55.3128 124.08 55.5662C124.31 55.8195 124.591 56.0218 124.904 56.1604C125.217 56.299 125.554 56.3707 125.896 56.3711C126.252 56.3722 126.606 56.2966 126.933 56.1495C127.258 56.0022 127.549 55.7867 127.787 55.5174C128.023 55.248 128.2 54.9308 128.306 54.5871C128.411 54.2434 128.443 53.8809 128.399 53.5239C128.439 53.1729 128.403 52.8173 128.294 52.4813C128.187 52.1453 128.007 51.8368 127.769 51.5767C127.532 51.3165 127.242 51.1109 126.919 50.9737C126.595 50.8365 126.247 50.7711 125.896 50.7818V50.7701ZM116.845 50.8635V56.2777H117.529V53.804H117.784C118.13 53.7858 118.472 53.8936 118.747 54.1078C119.02 54.3219 119.209 54.6282 119.279 54.9708C119.411 55.406 119.573 55.8309 119.766 56.2427H120.519C120.293 55.7412 120.095 55.227 119.928 54.7025C119.849 54.3421 119.661 54.0149 119.392 53.7646C119.124 53.5144 118.784 53.353 118.421 53.3022L120.461 50.8168H119.626L117.784 53.2789H117.564V50.8751L116.845 50.8635ZM106.08 54.0373L106.613 52.5088C106.717 52.182 106.798 51.8553 106.88 51.5286C106.961 51.8436 107.042 52.1587 107.158 52.5204L107.679 54.084L106.08 54.0373ZM107.841 54.5858L108.421 56.2894H109.162L107.355 50.8751H106.52L104.689 56.2894H105.408L105.964 54.5858H107.841ZM97.2731 50.8751V56.2894H97.9684V51.4586H100.471V56.2894H101.167V50.8751H97.2731ZM89.4744 50.8751V56.2894H90.1696V51.4586H92.6727V56.2894H93.3679V50.8751H89.4744ZM82.0349 50.8751L83.8194 54.5274C83.8479 54.5771 83.8629 54.6335 83.8629 54.6908C83.8629 54.7481 83.8479 54.8044 83.8194 54.8541C83.6572 55.2392 83.3211 55.776 82.7649 55.7876H82.51L82.4405 56.3594C82.5708 56.382 82.7041 56.382 82.8344 56.3594C83.0751 56.3536 83.3109 56.2903 83.5225 56.1747C83.7341 56.059 83.9153 55.8944 84.0512 55.6943C84.4664 55.0609 84.8122 54.384 85.0825 53.6756L86.2413 50.8985H85.5113L84.6769 53.2322L84.3409 54.2124L83.9469 53.2555L82.8808 50.9218L82.0349 50.8751ZM76.4726 51.4469C76.6883 51.4226 76.9059 51.4226 77.1216 51.4469C77.8864 51.4469 78.3962 51.797 78.3962 52.5088C78.3962 53.2205 77.8864 53.6756 77.052 53.6756C76.8597 53.7 76.665 53.7 76.4726 53.6756V51.4469ZM75.7774 56.2894H76.4726V54.119C76.6575 54.141 76.8441 54.141 77.0289 54.119C77.3289 54.1369 77.6293 54.0934 77.9121 53.991C78.195 53.8888 78.4542 53.7299 78.6744 53.5239C78.8176 53.3672 78.9283 53.1833 79 52.9828C79.0716 52.7825 79.1028 52.5698 79.0915 52.3571C79.1041 52.1392 79.068 51.9212 78.9857 51.7193C78.9035 51.5173 78.7773 51.3365 78.6164 51.1902C78.1866 50.8579 77.6506 50.696 77.11 50.7351C76.6637 50.7328 76.2179 50.7679 75.7774 50.8401V56.2894ZM180 44.0607C180.002 44.2257 179.94 44.3849 179.826 44.5041C179.658 44.6603 179.448 44.7655 179.224 44.8075C178.842 44.8976 178.455 44.9561 178.065 44.9825C177.578 44.9825 176.964 44.9825 176.211 44.9825C175.457 44.9825 174.762 44.9825 174.275 44.9825C173.884 44.9557 173.496 44.8892 173.117 44.7841C172.865 44.7231 172.635 44.5986 172.445 44.4224C172.29 44.2601 172.176 44.0645 172.108 43.8506L169.212 36.8495C168.87 35.9616 168.443 35.1097 167.937 34.3057C167.531 33.6854 167.031 33.134 166.454 32.6721C165.91 32.2497 165.288 31.9439 164.623 31.7736C163.864 31.5898 163.085 31.4997 162.305 31.5053H160.66V44.0373C160.662 44.2023 160.599 44.3616 160.486 44.4807C160.322 44.6337 160.123 44.7422 159.906 44.7958C159.529 44.9064 159.14 44.9729 158.748 44.9942C158.296 44.9942 157.693 44.9942 156.986 44.9942C156.279 44.9942 155.7 44.9942 155.225 44.9942C154.832 44.9729 154.444 44.9064 154.066 44.7958C153.844 44.7379 153.638 44.6302 153.463 44.4807C153.403 44.4239 153.356 44.3551 153.324 44.2788C153.292 44.2024 153.277 44.1202 153.278 44.0373V14.5741C153.277 14.4912 153.292 14.409 153.324 14.3327C153.356 14.2564 153.403 14.1875 153.463 14.1307C153.637 13.9825 153.844 13.8785 154.066 13.8273C154.446 13.7347 154.834 13.6761 155.225 13.6523C155.7 13.6523 156.291 13.6523 156.986 13.6523C157.681 13.6523 158.296 13.6523 158.748 13.6523C159.138 13.6718 159.526 13.7303 159.906 13.8273C160.123 13.874 160.324 13.9788 160.486 14.1307C160.543 14.1889 160.588 14.2582 160.618 14.3345C160.648 14.4107 160.662 14.4922 160.66 14.5741V26.2427H162.305C163.049 26.2529 163.791 26.1546 164.507 25.951C165.13 25.7593 165.712 25.4504 166.222 25.0408C166.77 24.5796 167.239 24.0317 167.612 23.4189C168.064 22.6475 168.452 21.8397 168.771 21.0035L171.193 14.7958C171.274 14.5918 171.388 14.4027 171.529 14.2357C171.698 14.0565 171.916 13.9307 172.155 13.874C172.533 13.766 172.921 13.6995 173.314 13.6756C173.777 13.6756 174.415 13.6756 175.214 13.6756C176.014 13.6756 176.535 13.6756 176.999 13.6756C177.389 13.6985 177.777 13.7571 178.157 13.8506C178.366 13.8833 178.558 13.9861 178.702 14.1424C178.797 14.2699 178.846 14.4264 178.841 14.5858C178.833 14.847 178.79 15.1061 178.714 15.3559C178.59 15.7534 178.444 16.1431 178.273 16.5228L175.863 22.0537C175.483 22.9603 175.038 23.8378 174.53 24.6791C174.133 25.3445 173.662 25.9629 173.128 26.5228C172.672 27.0075 172.149 27.424 171.575 27.7596C171.004 28.0907 170.397 28.3567 169.768 28.5531C170.464 28.8091 171.137 29.1212 171.784 29.4866C172.377 29.861 172.922 30.3078 173.406 30.8168C173.98 31.414 174.489 32.0712 174.924 32.7771C175.476 33.6931 175.967 34.6441 176.396 35.6243L179.351 42.0887C179.57 42.5264 179.748 42.9833 179.884 43.4539C179.944 43.6512 179.984 43.8547 180 44.0607ZM110.472 44.0607C110.474 44.2257 110.411 44.3849 110.298 44.5041C110.13 44.6603 109.921 44.7655 109.695 44.8075C109.315 44.8978 108.927 44.9562 108.537 44.9825C108.038 44.9825 107.378 44.9825 106.659 44.9825C105.941 44.9825 105.234 44.9825 104.736 44.9825C104.344 44.9561 103.956 44.8896 103.577 44.7841C103.336 44.7246 103.115 44.5995 102.94 44.4224C102.789 44.2557 102.671 44.0616 102.592 43.8506L100.008 36.7795C99.7128 35.9072 99.3242 35.0699 98.8491 34.2824C98.4625 33.6652 97.9724 33.1204 97.4006 32.6721C96.8789 32.2555 96.2742 31.9571 95.6276 31.797C94.8898 31.6032 94.1304 31.5051 93.3679 31.5053H91.9542V44.0373C91.9562 44.2023 91.8938 44.3616 91.7804 44.4807C91.6245 44.6315 91.4331 44.74 91.2242 44.7958C90.8657 44.9028 90.4964 44.9693 90.1233 44.9942C89.6714 44.9942 89.0804 44.9942 88.3851 44.9942C87.6898 44.9942 87.0988 44.9942 86.6353 44.9942C86.2622 44.9693 85.893 44.9028 85.5344 44.7958C85.3289 44.7401 85.1412 44.6315 84.9898 44.4807C84.8869 44.3568 84.8333 44.1988 84.8392 44.0373V31.5053H83.4254C82.6233 31.491 81.8232 31.5932 81.0499 31.8086C80.3895 31.9898 79.7738 32.3078 79.2422 32.7421C78.6993 33.1985 78.2403 33.7475 77.8864 34.3641C77.4568 35.107 77.0961 35.8882 76.8087 36.6978L74.2593 43.769C74.1804 43.9799 74.0625 44.174 73.9117 44.3407C73.7302 44.5221 73.501 44.6476 73.2512 44.7025C72.8725 44.8075 72.4843 44.874 72.0924 44.9008C71.6057 44.9008 70.9336 44.9008 70.1804 44.9008C69.4271 44.9008 68.7782 44.9008 68.2915 44.9008C67.9012 44.8744 67.5136 44.8159 67.1327 44.7258C66.9076 44.6838 66.6986 44.5786 66.5301 44.4224C66.4168 44.3033 66.3543 44.144 66.3563 43.979C66.3563 43.8973 66.3563 43.7923 66.3563 43.6873C66.37 43.5526 66.3971 43.4197 66.4374 43.2905C66.4374 43.1389 66.5533 42.9522 66.6228 42.7538C66.6924 42.5554 66.8082 42.2987 66.9357 42.007L69.4271 35.7876C69.82 34.7789 70.2848 33.8001 70.8177 32.8588C71.2287 32.1378 71.7227 31.468 72.2894 30.8635C72.7907 30.3398 73.3644 29.8917 73.9928 29.5333C74.6562 29.1876 75.3508 28.9063 76.0671 28.6931C75.4415 28.526 74.8384 28.2831 74.2709 27.9697C73.7087 27.6613 73.1967 27.2677 72.7529 26.8028C72.2295 26.2252 71.7709 25.5914 71.3855 24.9125C70.892 24.0307 70.4621 23.1144 70.0992 22.1704L67.9555 16.5228C67.7873 16.145 67.6478 15.755 67.5383 15.3559C67.469 15.1088 67.4302 14.854 67.4224 14.5974C67.4175 14.4362 67.4711 14.2785 67.5731 14.154C67.7261 14.004 67.9195 13.9026 68.1293 13.8623C68.5095 13.7686 68.8973 13.71 69.2881 13.6873C69.7632 13.6873 70.3658 13.6873 71.1074 13.6873C71.849 13.6873 72.5211 13.6873 73.0078 13.6873C73.4003 13.7095 73.789 13.776 74.1666 13.8856C74.3998 13.9406 74.6103 14.067 74.7692 14.2474C74.899 14.4147 74.9971 14.6046 75.0589 14.8075L77.3765 21.4002C77.6412 22.2093 77.9827 22.9909 78.3962 23.734C78.6917 24.2767 79.08 24.7625 79.5434 25.1692C80.0319 25.5595 80.5966 25.8418 81.2005 25.9977C81.9316 26.1817 82.6836 26.268 83.437 26.2544H84.8508V14.5858C84.8425 14.4239 84.8965 14.2651 85.0014 14.1424C85.1522 13.9931 85.3405 13.8882 85.546 13.839C85.9065 13.7452 86.2753 13.6866 86.6469 13.6639C87.0988 13.6639 87.6898 13.6639 88.3967 13.6639C89.1035 13.6639 89.6829 13.6639 90.1349 13.6639C90.5066 13.6866 90.8752 13.7452 91.2357 13.839C91.4455 13.8862 91.6381 13.9912 91.792 14.1424C91.8492 14.2006 91.8941 14.2699 91.924 14.3462C91.9539 14.4224 91.9681 14.5039 91.9658 14.5858V26.2544H93.3795C94.1229 26.2663 94.8642 26.172 95.5812 25.9743C96.1952 25.802 96.7672 25.5041 97.2615 25.0992C97.7746 24.6681 98.2097 24.151 98.5478 23.5706C98.9597 22.8583 99.2938 22.1033 99.5443 21.3186L101.862 14.7491C101.924 14.5462 102.022 14.3564 102.152 14.189C102.311 14.0086 102.521 13.8823 102.754 13.8273C103.132 13.7177 103.521 13.6512 103.913 13.6289C104.4 13.6289 105.072 13.6289 105.813 13.6289C106.555 13.6289 107.146 13.6289 107.621 13.6289C108.012 13.6551 108.399 13.7135 108.78 13.804C108.993 13.8459 109.189 13.9469 109.348 14.0957C109.451 14.2196 109.504 14.3776 109.498 14.5391C109.49 14.8004 109.447 15.0594 109.371 15.3092C109.29 15.6126 109.151 16.021 108.977 16.4761L106.833 21.9603C106.489 22.8686 106.078 23.7501 105.605 24.5974C105.239 25.2656 104.791 25.8849 104.272 26.4411C103.815 26.9204 103.297 27.3364 102.731 27.6779C102.143 28.0174 101.522 28.295 100.877 28.5064C101.598 28.7746 102.296 29.1023 102.963 29.4866C103.589 29.8625 104.162 30.3217 104.666 30.8518C105.224 31.4643 105.706 32.142 106.103 32.8705C106.576 33.8417 106.994 34.839 107.355 35.8576L109.834 42.077C109.962 42.3687 110.066 42.6138 110.136 42.8238C110.205 43.0338 110.263 43.2089 110.321 43.3606C110.36 43.4907 110.391 43.6232 110.414 43.7573C110.434 43.8573 110.446 43.9587 110.449 44.0607H110.472ZM144.332 44.0607C144.332 44.1398 144.315 44.218 144.283 44.2903C144.251 44.3627 144.205 44.4274 144.147 44.4807C143.973 44.6289 143.767 44.7329 143.544 44.7841C143.164 44.8763 142.776 44.9349 142.385 44.9592C141.91 44.9592 141.319 44.9592 140.624 44.9592C139.929 44.9592 139.338 44.9592 138.863 44.9592C138.472 44.9372 138.084 44.8785 137.704 44.7841C137.489 44.739 137.292 44.6337 137.136 44.4807C137.025 44.3694 136.962 44.2183 136.962 44.0607V27.6546C136.962 27.0245 136.962 26.4177 136.962 25.811C136.962 25.2042 136.962 24.6441 137.043 24.2124L136.51 24.9942L135.85 25.9277L135.108 26.9428L134.332 27.9463L121.886 44.1074C121.748 44.2712 121.596 44.4233 121.434 44.5624C121.252 44.7043 121.043 44.8076 120.82 44.8658C120.521 44.9498 120.214 45.0007 119.905 45.0175C119.545 45.0175 119.07 45.0175 118.502 45.0175C117.935 45.0175 117.193 45.0175 116.753 45.0175C116.4 44.9928 116.051 44.9341 115.71 44.8425C115.511 44.7939 115.333 44.6838 115.2 44.5274C115.107 44.3943 115.058 44.235 115.061 44.0723V14.5508C115.061 14.4716 115.078 14.3935 115.11 14.3211C115.142 14.2488 115.188 14.184 115.246 14.1307C115.42 13.9821 115.627 13.8781 115.849 13.8273C116.23 13.737 116.617 13.6785 117.008 13.6523C117.459 13.6523 118.05 13.6523 118.757 13.6523C119.464 13.6523 120.067 13.6523 120.519 13.6523C120.909 13.6762 121.297 13.7348 121.678 13.8273C121.894 13.874 122.095 13.9788 122.257 14.1307C122.367 14.2427 122.43 14.3933 122.431 14.5508V31.0735C122.431 31.5869 122.431 32.1354 122.431 32.7071C122.431 33.2789 122.431 33.874 122.35 34.3874C122.674 33.909 123.068 33.3256 123.508 32.6488C123.949 31.972 124.493 31.3186 125.003 30.6768L137.484 14.5158C137.61 14.3631 137.749 14.2225 137.901 14.0957C138.081 13.959 138.285 13.8562 138.503 13.7923C138.806 13.7075 139.116 13.6527 139.43 13.6289C139.801 13.6289 140.276 13.6289 140.856 13.6289C141.563 13.6289 142.13 13.6289 142.559 13.6289C142.911 13.6565 143.26 13.7151 143.602 13.804C143.807 13.8532 143.996 13.9581 144.147 14.1074C144.25 14.2313 144.303 14.3893 144.297 14.5508L144.332 44.0607ZM28.452 24.224C28.6679 24.0518 28.8158 23.8077 28.8691 23.5356V23.3372C28.8691 19.3699 28.8691 15.986 28.8691 12.6021C28.8691 8.66978 28.8691 4.73746 28.9271 1.34189V1.30688V1.21354C28.8202 0.881421 28.6178 0.588767 28.3455 0.372707C28.0732 0.156648 27.7431 0.0269252 27.3975 0H27.2468C21.7594 0.91155 16.6298 3.33474 12.4258 7.00117C12.2501 7.20462 12.1249 7.44717 12.0604 7.70885C11.996 7.97053 11.9941 8.24387 12.055 8.50642C12.0828 8.6355 12.1255 8.76083 12.1825 8.87981V8.96149L12.2404 9.03151L17.4665 14.3874C20.5374 17.5379 23.6198 20.6884 26.9571 24.1307L27.0151 24.189H27.0962C27.3016 24.3039 27.5369 24.3531 27.7708 24.3301C28.0047 24.3072 28.226 24.2132 28.4056 24.0607L28.452 24.224ZM35.5091 23.5123C35.556 23.7862 35.6985 24.0343 35.9109 24.2119C36.1235 24.3895 36.3918 24.4848 36.6679 24.4807C36.8617 24.4789 37.0522 24.4309 37.2241 24.3407H37.3052L37.3631 24.2824C40.8395 20.7818 43.8292 17.6663 46.8769 14.5624L52.1147 9.2182L52.1842 9.14819V9.06651C52.3345 8.76539 52.3925 8.42618 52.3513 8.09179C52.31 7.75739 52.1713 7.44282 51.9524 7.18786C47.7763 3.45776 42.6533 0.969274 37.1546 0H37.0039C36.6699 0.0298231 36.3515 0.155657 36.0865 0.362525C35.8215 0.569392 35.621 0.848581 35.5091 1.16686V1.26021V1.40023C35.5091 4.90082 35.5091 8.78646 35.5091 12.6721C35.5091 16.1727 35.5091 19.6733 35.5091 23.4072V23.5239V23.5123ZM59.2413 43.6523C61.5392 39.0732 62.6486 33.9828 62.4662 28.8555C62.2839 23.7284 60.8157 18.7309 58.1984 14.3291L58.0709 14.1074L57.9318 13.8856C57.6382 13.5701 57.2389 13.3753 56.8109 13.3386C56.383 13.302 55.9567 13.4261 55.6142 13.6873L55.3941 13.8973L42.7979 25.9743C42.6959 26.0768 42.6169 26.2002 42.5662 26.3361C42.515 26.4662 42.4876 26.6046 42.485 26.7445C42.4699 26.8529 42.4699 26.9628 42.485 27.0712C42.5131 27.1778 42.5561 27.28 42.6125 27.3746L49.4147 35.6826C51.4889 38.203 53.5632 40.7351 56.24 44.0257L56.379 44.189C56.5545 44.3658 56.7661 44.5019 56.999 44.5876C57.232 44.6734 57.4809 44.707 57.7281 44.6859C57.9754 44.6648 58.215 44.5895 58.4304 44.4653C58.6457 44.3413 58.8315 44.1713 58.9748 43.9673L59.0443 43.8273L59.1138 43.6873L59.2413 43.6523ZM35.7176 30.5134C35.64 30.6649 35.5816 30.8257 35.5438 30.9918V31.1085C35.5091 34.4107 35.5091 39.3349 35.5091 44.3407C35.5091 49.3466 35.5091 54.6441 35.4511 58.6464V58.7398V58.8331C35.5622 59.1497 35.7609 59.4278 36.0237 59.6345C36.2865 59.8412 36.6025 59.968 36.9344 60H37.085C38.6573 59.73 40.2068 59.3399 41.7202 58.8331C43.1962 58.3495 44.6302 57.7446 46.0078 57.0245C47.2966 56.3415 48.5323 55.5614 49.7044 54.6908C50.8632 53.839 51.9293 52.9405 52.9258 52.0887C53.0561 51.9328 53.158 51.7551 53.2271 51.5636C53.2997 51.3735 53.3388 51.1721 53.343 50.9685C53.3614 50.8252 53.3614 50.68 53.343 50.5368C53.3224 50.4125 53.2874 50.2911 53.2387 50.175L38.2207 30.6068C38.0958 30.4317 37.952 30.2713 37.7919 30.1284C37.5616 29.9224 37.2656 29.8064 36.9576 29.8016C36.7907 29.7865 36.6225 29.8056 36.4632 29.8578C36.3039 29.9099 36.1567 29.994 36.0305 30.105C35.9035 30.2218 35.7977 30.3601 35.7176 30.5134ZM28.7648 30.9802C28.7308 30.8145 28.6763 30.6538 28.6026 30.5018C28.5295 30.3503 28.4316 30.2123 28.3129 30.0934C28.1868 29.9824 28.0397 29.8983 27.8803 29.8461C27.721 29.7939 27.5527 29.7748 27.3859 29.79C27.0777 29.7937 26.7813 29.9098 26.5515 30.1167C26.391 30.2593 26.2472 30.4197 26.1228 30.5951L11.1743 50C11.0538 50.2341 10.994 50.495 11.0005 50.7585C11.0049 50.9621 11.0441 51.1634 11.1164 51.3536C11.1822 51.5441 11.2802 51.7217 11.4061 51.8786C12.391 52.7421 13.4571 53.6406 14.6159 54.4924C15.7844 55.3623 17.0162 56.1424 18.3009 56.8261C19.6782 57.5501 21.1122 58.1589 22.5884 58.6464C24.1018 59.1534 25.6514 59.5435 27.2236 59.8133H27.3975C27.7295 59.7813 28.0455 59.6545 28.3082 59.4478C28.571 59.2411 28.7696 58.963 28.8807 58.6464V58.5531V58.4597C28.8807 54.8541 28.8807 49.4749 28.8807 44.154C28.8807 39.2999 28.8807 34.4807 28.8807 30.9452V30.8285L28.7648 30.9802ZM69.6241 50.8751V56.2894H70.2731V51.4586H72.44V50.8751H69.6241Z" fill="#C0C0C0"/>
<path d="M1.63336 37.4319C2.15097 39.7054 2.92624 41.9086 3.94323 43.9963L4.0105 44.1347L4.07778 44.2732C4.22959 44.4958 4.4309 44.6779 4.66495 44.8043C4.89899 44.9308 5.159 44.9978 5.42333 45C5.84503 44.9883 6.24633 44.8108 6.54463 44.5039L6.67918 44.3424C8.87691 41.5967 11.0859 38.8547 13.306 36.1167C15.5261 33.3786 17.7128 30.6674 19.8656 27.9833C19.9202 27.8897 19.9618 27.7888 19.989 27.6833C20.0037 27.5761 20.0037 27.4673 19.989 27.3603C19.9865 27.2218 19.9599 27.0851 19.9105 26.9565C19.861 26.8223 19.7847 26.7004 19.6862 26.5989L7.85654 14.5545L7.64349 14.3468C7.40727 14.1642 7.12848 14.0489 6.83519 14.0125C6.54189 13.976 6.24444 14.0198 5.97277 14.1392C5.7621 14.2296 5.57139 14.3631 5.41212 14.5314L5.27757 14.7506L5.15422 14.9698C1.23649 21.7094 0.0295995 29.756 1.79034 37.3973L1.63336 37.4319Z" stroke="#C0C0C0" stroke-width="1.66" stroke-linecap="round" stroke-linejoin="round"/>
</svg>
