<svg width="30" height="30" viewBox="0 0 30 30" fill="none" xmlns="http://www.w3.org/2000/svg">
<path fill-rule="evenodd" clip-rule="evenodd" d="M15.0014 0C10.9276 0 10.4164 0.0178127 8.81634 0.090626C7.21945 0.163752 6.12944 0.416567 5.17568 0.787508C4.18911 1.17064 3.35222 1.68314 2.51846 2.51721C1.68408 3.35097 1.17157 4.18786 0.787196 5.17412C0.415317 6.12819 0.162189 7.21851 0.0903134 8.81478C0.0187502 10.4148 0 10.9264 0 15.0002C0 19.0739 0.0181252 19.5836 0.0906259 21.1837C0.164064 22.7806 0.416879 23.8706 0.787508 24.8243C1.17095 25.8109 1.68346 26.6478 2.51753 27.4815C3.35097 28.3159 4.18786 28.8297 5.1738 29.2128C6.12819 29.5837 7.21851 29.8366 8.81509 29.9097C10.4151 29.9825 10.9261 30.0003 14.9995 30.0003C19.0736 30.0003 19.5833 29.9825 21.1833 29.9097C22.7802 29.8366 23.8715 29.5837 24.8259 29.2128C25.8121 28.8297 26.6478 28.3159 27.4812 27.4815C28.3156 26.6478 28.8281 25.8109 29.2125 24.8246C29.5812 23.8706 29.8344 22.7802 29.9094 21.184C29.9812 19.584 30 19.0739 30 15.0002C30 10.9264 29.9812 10.4151 29.9094 8.81509C29.8344 7.2182 29.5812 6.12819 29.2125 5.17443C28.8281 4.18786 28.3156 3.35097 27.4812 2.51721C26.6468 1.68283 25.8125 1.17032 24.8249 0.787508C23.8687 0.416567 22.778 0.163752 21.1812 0.090626C19.5811 0.0178127 19.0718 0 14.9967 0H15.0014ZM13.6557 2.70297C14.0551 2.70234 14.5007 2.70297 15.0013 2.70297C19.0064 2.70297 19.4811 2.71734 21.0627 2.78922C22.5252 2.8561 23.3189 3.10047 23.8477 3.30579C24.5477 3.57767 25.0468 3.90267 25.5715 4.42767C26.0965 4.95268 26.4215 5.45269 26.694 6.15269C26.8993 6.68082 27.144 7.47458 27.2105 8.9371C27.2824 10.5184 27.298 10.9934 27.298 14.9965C27.298 18.9997 27.2824 19.4747 27.2105 21.056C27.1437 22.5185 26.8993 23.3122 26.694 23.8404C26.4221 24.5404 26.0965 25.0388 25.5715 25.5635C25.0465 26.0885 24.548 26.4135 23.8477 26.6854C23.3196 26.8917 22.5252 27.1354 21.0627 27.2023C19.4814 27.2742 19.0064 27.2898 15.0013 27.2898C10.996 27.2898 10.5213 27.2742 8.94004 27.2023C7.47752 27.1348 6.68376 26.8904 6.15469 26.6851C5.45469 26.4132 4.95468 26.0882 4.42968 25.5632C3.90467 25.0382 3.57967 24.5394 3.30716 23.8391C3.10185 23.311 2.85716 22.5172 2.7906 21.0547C2.71872 19.4735 2.70435 18.9985 2.70435 14.9928C2.70435 10.9871 2.71872 10.5146 2.7906 8.93335C2.85747 7.47083 3.10185 6.67707 3.30716 6.14832C3.57904 5.44831 3.90467 4.9483 4.42968 4.4233C4.95468 3.89829 5.45469 3.57329 6.15469 3.30079C6.68345 3.09454 7.47752 2.85078 8.94004 2.78359C10.3238 2.72109 10.8601 2.70234 13.6557 2.69922V2.70297ZM23.0084 5.19398C22.0146 5.19398 21.2084 5.99931 21.2084 6.99338C21.2084 7.98714 22.0146 8.7934 23.0084 8.7934C24.0022 8.7934 24.8084 7.98714 24.8084 6.99338C24.8084 5.99962 24.0022 5.19336 23.0084 5.19336V5.19398ZM15.0014 7.29688C10.7473 7.29688 7.29822 10.746 7.29822 15.0001C7.29822 19.2542 10.7473 22.7017 15.0014 22.7017C19.2555 22.7017 22.7034 19.2542 22.7034 15.0001C22.7034 10.746 19.2552 7.29688 15.0011 7.29688H15.0014ZM15.0014 10C17.7627 10 20.0014 12.2385 20.0014 15.0001C20.0014 17.7613 17.7627 20.0001 15.0014 20.0001C12.2398 20.0001 10.0013 17.7613 10.0013 15.0001C10.0013 12.2385 12.2398 10 15.0014 10Z" fill="#CDCDCD"/>
</svg>
