<svg width="75" height="75" viewBox="0 0 75 75" fill="none" xmlns="http://www.w3.org/2000/svg">
<g clip-path="url(#clip0)">
<path d="M31.6406 69.1406C32.4496 69.1406 33.1055 68.4848 33.1055 67.6758C33.1055 66.8668 32.4496 66.2109 31.6406 66.2109C30.8316 66.2109 30.1758 66.8668 30.1758 67.6758C30.1758 68.4848 30.8316 69.1406 31.6406 69.1406Z" fill="#1A6C77"/>
<path d="M43.3594 69.1406C44.1684 69.1406 44.8242 68.4848 44.8242 67.6758C44.8242 66.8668 44.1684 66.2109 43.3594 66.2109C42.5504 66.2109 41.8945 66.8668 41.8945 67.6758C41.8945 68.4848 42.5504 69.1406 43.3594 69.1406Z" fill="#1A6C77"/>
<path d="M37.5 69.1406C38.309 69.1406 38.9648 68.4848 38.9648 67.6758C38.9648 66.8668 38.309 66.2109 37.5 66.2109C36.691 66.2109 36.0352 66.8668 36.0352 67.6758C36.0352 68.4848 36.691 69.1406 37.5 69.1406Z" fill="#1A6C77"/>
<path d="M74.3052 56.1759C73.8734 55.909 73.334 55.8847 72.8801 56.1117L70.6055 57.249L68.3309 56.1117C67.8768 55.8847 67.3375 55.909 66.9057 56.1759C66.4737 56.4426 66.2109 56.9142 66.2109 57.4219V63.2812H63.2812V57.4219C63.2812 56.9142 63.0185 56.4426 62.5865 56.1759C62.1546 55.909 61.6153 55.8847 61.1613 56.1117L58.8867 57.249L56.6121 56.1117C56.158 55.8847 55.6188 55.909 55.187 56.1759C54.755 56.4426 54.4922 56.9142 54.4922 57.4219V63.2812H51.5625V54.4922C51.5625 54.0177 51.3327 53.5727 50.9459 53.2979C50.5592 53.0232 50.0631 52.9526 49.6153 53.1091L47.7539 53.7583V38.0859C47.7539 37.9289 47.7284 37.7723 47.6782 37.6235C47.6767 37.6194 47.6761 37.615 47.6747 37.6109L40.0481 15.3668L41.1715 15.9489C41.3837 16.0589 41.615 16.1133 41.8453 16.1133C42.151 16.1133 42.4553 16.0176 42.7113 15.83C43.1603 15.5008 43.384 14.9458 43.2886 14.3974L42.5922 10.3951L45.5461 7.55698C45.9498 7.16895 46.0972 6.58462 45.9255 6.05171C45.7538 5.51865 45.2933 5.13003 44.7388 5.05078L40.6393 4.46353L38.8097 0.809326C38.5616 0.313184 38.0546 0 37.5 0C36.9454 0 36.4384 0.313184 36.1901 0.809033L34.3605 4.46323L30.261 5.05049C29.7067 5.12988 29.246 5.51836 29.0744 6.05142C28.9027 6.58447 29.0499 7.16865 29.4538 7.55669L32.4076 10.3948L31.7112 14.3971C31.6159 14.9455 31.8394 15.5007 32.2885 15.8297C32.7374 16.1587 33.3343 16.2048 33.8284 15.9488L34.9518 15.3667L27.3252 37.6107C27.3237 37.6148 27.3231 37.6192 27.3217 37.6233C27.272 37.7719 27.2461 37.9292 27.2461 38.0859V53.7583L25.3847 53.1091C24.9366 52.9526 24.4408 53.0231 24.0541 53.2979C23.6673 53.5727 23.4375 54.0177 23.4375 54.4922V63.2812H20.5078V57.4219C20.5078 56.9142 20.245 56.4426 19.813 56.1759C19.3812 55.909 18.842 55.8847 18.3879 56.1117L16.1133 57.249L13.8387 56.1117C13.3844 55.8847 12.8454 55.909 12.4135 56.1759C11.9815 56.4426 11.7188 56.9142 11.7188 57.4219V63.2812H8.78906V57.4219C8.78906 56.9142 8.52627 56.4426 8.09429 56.1759C7.66245 55.909 7.1231 55.8847 6.66914 56.1117L4.39453 57.249L2.11992 56.1117C1.66567 55.8847 1.12661 55.909 0.694775 56.1759C0.262793 56.4426 0 56.9142 0 57.4219V73.5352C0 74.3442 0.655811 75 1.46484 75H73.5352C74.3442 75 75 74.3442 75 73.5352V57.4219C75 56.9142 74.7372 56.4426 74.3052 56.1759ZM69.1406 59.792L69.9504 60.1969C70.3627 60.403 70.8482 60.403 71.2605 60.1969L72.0703 59.792V63.2812H69.1406V59.792ZM57.4219 59.792L58.2316 60.1969C58.644 60.403 59.1294 60.403 59.5418 60.1969L60.3516 59.792V63.2812H57.4219V59.792ZM44.8242 39.5508V54.0309L42.1818 53.1091C41.8693 53.0001 41.5292 53.0001 41.2169 53.1091L37.5 54.4056L33.7833 53.1091C33.4708 53.0001 33.1307 53.0001 32.8182 53.1091L30.1758 54.0309V39.5508H44.8242ZM33.6489 7.52476L35.5349 7.25464C36.0103 7.18652 36.422 6.88975 36.6371 6.4604L37.5 4.73672L38.3629 6.4604C38.578 6.88975 38.9897 7.18652 39.4651 7.25464L41.3511 7.52476L40.0006 8.82217C39.6495 9.15967 39.489 9.64966 39.5725 10.1295L39.8959 11.988L38.1741 11.0958C37.9629 10.9862 37.7314 10.9314 37.5001 10.9314C37.2688 10.9314 37.0374 10.9862 36.8262 11.0958L35.1044 11.988L35.4278 10.1295C35.5113 9.64966 35.3508 9.15967 34.9997 8.82217L33.6489 7.52476ZM37.5 16.9677L44.2383 36.6211H38.9648V31.9336C38.9648 31.1246 38.309 30.4688 37.5 30.4688C36.691 30.4688 36.0352 31.1246 36.0352 31.9336V36.6211H30.7617L37.5 16.9677ZM14.6484 59.792L15.4582 60.1969C15.8706 60.403 16.356 60.403 16.7684 60.1969L17.5781 59.792V63.2812H14.6484V59.792ZM2.92969 59.792L3.73945 60.1969C4.15181 60.403 4.63726 60.403 5.04961 60.1969L5.85938 59.792V63.2812H2.92969V59.792ZM2.92969 66.2109H23.4375V72.0703H2.92969V66.2109ZM26.3672 63.2812H31.6406C32.4478 63.2812 33.1055 62.6235 33.1055 61.8164C33.1055 61.0093 32.4478 60.3516 31.6406 60.3516H26.3672V56.5545L28.6192 57.3401C28.9317 57.4491 29.2718 57.4491 29.5841 57.3401L33.3009 56.0436L37.0176 57.3401C37.3301 57.4491 37.6704 57.4491 37.9825 57.3401L41.6994 56.0436L45.416 57.3401C45.7285 57.4491 46.0686 57.4491 46.3809 57.3401L48.6328 56.5545V60.3516H43.3594C42.5522 60.3516 41.8945 61.0093 41.8945 61.8164C41.8945 62.6235 42.5522 63.2812 43.3594 63.2812H48.6328V72.0703H26.3672V63.2812ZM72.0703 72.0703H51.5625V66.2109H72.0703V72.0703Z" fill="#1A6C77"/>
<path d="M37.5 60.3516C36.6929 60.3516 36.0352 61.0093 36.0352 61.8164C36.0352 62.6235 36.6929 63.2812 37.5 63.2812C38.3071 63.2812 38.9648 62.6235 38.9648 61.8164C38.9648 61.0093 38.3071 60.3516 37.5 60.3516Z" fill="#1A6C77"/>
<path d="M37.5 51.2695C39.9231 51.2695 41.8945 49.2981 41.8945 46.875C41.8945 44.4519 39.9231 42.4805 37.5 42.4805C35.0769 42.4805 33.1055 44.4519 33.1055 46.875C33.1055 49.2981 35.0769 51.2695 37.5 51.2695ZM37.5 45.4102C38.3077 45.4102 38.9648 46.0673 38.9648 46.875C38.9648 47.6827 38.3077 48.3398 37.5 48.3398C36.6923 48.3398 36.0352 47.6827 36.0352 46.875C36.0352 46.0673 36.6923 45.4102 37.5 45.4102Z" fill="#1A6C77"/>
</g>
<defs>
<clipPath id="clip0">
<rect width="75" height="75" fill="white"/>
</clipPath>
</defs>
</svg>
