<svg width="28" height="45" viewBox="0 0 28 45" fill="none" xmlns="http://www.w3.org/2000/svg">
<path d="M1.86671 33.5023C2.57502 36.6559 3.6359 39.7119 5.02757 42.6078L5.11964 42.7998L5.2117 42.9918C5.41944 43.3007 5.69491 43.5532 6.01519 43.7286C6.33547 43.904 6.69126 43.997 7.05298 44C7.63004 43.9838 8.17919 43.7376 8.58738 43.3119L8.77151 43.0879C11.7789 39.2792 14.8017 35.4759 17.8397 31.678C20.8779 27.8799 23.8701 24.1193 26.8161 20.3962C26.8909 20.2664 26.9478 20.1264 26.9849 19.9801C27.005 19.8314 27.005 19.6805 26.9849 19.532C26.9816 19.34 26.9452 19.1504 26.8775 18.9719C26.8099 18.7858 26.7054 18.6167 26.5706 18.4758L10.3826 1.76912L10.0911 1.48107C9.76784 1.22775 9.38635 1.06789 8.98499 1.01732C8.58364 0.96675 8.17661 1.0274 7.80484 1.19303C7.51656 1.31849 7.25559 1.50364 7.03764 1.73711L6.85351 2.04116L6.68473 2.34521C1.32362 11.6936 -0.327916 22.8551 2.08152 33.4543L1.86671 33.5023Z" stroke="white" stroke-width="1.66" stroke-linecap="round" stroke-linejoin="round"/>
</svg>
