<svg width="75" height="75" viewBox="0 0 75 75" fill="none" xmlns="http://www.w3.org/2000/svg">
<path d="M37.5008 9.20361C16.7901 9.20361 0 26.1533 0 47.062C0 58.3992 4.8926 65.7931 4.8926 65.7931L70.0932 65.7962C70.0932 65.7962 75 57.7155 75 47.0612C75 26.1533 58.2099 9.20361 37.5008 9.20361ZM67.3428 61.1842L7.7774 61.1582C7.7774 61.1582 4.60342 55.1474 4.60342 46.9425C4.60342 28.6169 19.3881 13.7599 37.6265 13.7599C55.8642 13.7599 70.6496 28.6161 70.6496 46.9425C70.6504 55.2401 67.3428 61.1842 67.3428 61.1842Z" fill="#1A6C77"/>
<path d="M48.0986 19.257L47.6278 19.2562L37.625 38.8573L27.2622 19.0889L13.0739 54.8011H9.40723V57.6694H29.4947V54.8011H25.509L29.4947 43.6399L37.625 57.6694L45.4369 43.6399L49.4219 54.8011H45.4369V57.6694H65.3641V54.8011H61.9119L48.0986 19.257Z" fill="#1A6C77"/>
</svg>
