<svg width="45" height="45" viewBox="0 0 45 45" fill="none" xmlns="http://www.w3.org/2000/svg">
<circle cx="22.5" cy="22.5" r="21.5" stroke="#C5604F" stroke-width="2"/>
<path d="M29.6067 26.0316L27.509 23.934C26.7598 23.1848 25.4862 23.4845 25.1865 24.4584C24.9618 25.1327 24.2126 25.5073 23.5383 25.3574C22.04 24.9828 20.0172 23.0349 19.6426 21.4617C19.4178 20.7874 19.8673 20.0382 20.5416 19.8135C21.5155 19.5138 21.8152 18.2402 21.066 17.491L18.9683 15.3933C18.369 14.8689 17.47 14.8689 16.9455 15.3933L15.5221 16.8168C14.0987 18.3151 15.6719 22.2858 19.1931 25.8069C22.7142 29.328 26.6849 30.9763 28.1832 29.4779L29.6067 28.0544C30.1311 27.4551 30.1311 26.5561 29.6067 26.0316Z" fill="#C5604F"/>
</svg>
